<?xml version="1.0" encoding="UTF-8" standalone="no"?>
<!DOCTYPE svg PUBLIC "-//W3C//DTD SVG 1.1//EN"
 "http://www.w3.org/Graphics/SVG/1.1/DTD/svg11.dtd">
<!-- Generated by graphviz version 2.44.0 (0)
 -->
<!-- Pages: 1 -->
<svg width="778pt" height="502pt"
 viewBox="0.00 0.00 778.00 502.00" xmlns="http://www.w3.org/2000/svg" xmlns:xlink="http://www.w3.org/1999/xlink">
<g id="graph0" class="graph" transform="scale(1 1) rotate(0) translate(4 498)">
<polygon fill="white" stroke="transparent" points="-4,4 -4,-498 774,-498 774,4 -4,4"/>
<!-- E -->
<g id="node1" class="node">
<title>E</title>
<polygon fill="lightblue" stroke="black" points="178.5,-494 124.5,-494 124.5,-458 178.5,-458 178.5,-494"/>
<text text-anchor="middle" x="151.5" y="-471.6" font-family="Hack" font-size="18.00">E</text>
</g>
<!-- Err -->
<g id="node4" class="node">
<title>Err</title>
<path fill="none" stroke="black" d="M120.5,-379.5C120.5,-379.5 82.5,-379.5 82.5,-379.5 76.5,-379.5 70.5,-373.5 70.5,-367.5 70.5,-367.5 70.5,-355.5 70.5,-355.5 70.5,-349.5 76.5,-343.5 82.5,-343.5 82.5,-343.5 120.5,-343.5 120.5,-343.5 126.5,-343.5 132.5,-349.5 132.5,-355.5 132.5,-355.5 132.5,-367.5 132.5,-367.5 132.5,-373.5 126.5,-379.5 120.5,-379.5"/>
<text text-anchor="middle" x="101.5" y="-358.4" font-family="Hack" font-size="12.00">Err(e)</text>
</g>
<!-- E&#45;&gt;Err -->
<g id="edge27" class="edge">
<title>E&#45;&gt;Err</title>
<path fill="none" stroke="black" d="M143.91,-457.91C135.76,-439.58 122.71,-410.22 113.24,-388.9"/>
<polygon fill="black" stroke="black" points="116.43,-387.46 109.17,-379.75 110.03,-390.31 116.43,-387.46"/>
</g>
<!-- T -->
<g id="node2" class="node">
<title>T</title>
<polygon fill="lightblue" stroke="black" points="439.5,-494 385.5,-494 385.5,-458 439.5,-458 439.5,-494"/>
<text text-anchor="middle" x="412.5" y="-471.6" font-family="Hack" font-size="18.00">T</text>
</g>
<!-- Ok -->
<g id="node6" class="node">
<title>Ok</title>
<path fill="none" stroke="black" d="M310.5,-379.5C310.5,-379.5 280.5,-379.5 280.5,-379.5 274.5,-379.5 268.5,-373.5 268.5,-367.5 268.5,-367.5 268.5,-355.5 268.5,-355.5 268.5,-349.5 274.5,-343.5 280.5,-343.5 280.5,-343.5 310.5,-343.5 310.5,-343.5 316.5,-343.5 322.5,-349.5 322.5,-355.5 322.5,-355.5 322.5,-367.5 322.5,-367.5 322.5,-373.5 316.5,-379.5 310.5,-379.5"/>
<text text-anchor="middle" x="295.5" y="-358.4" font-family="Hack" font-size="12.00">Ok(t)</text>
</g>
<!-- T&#45;&gt;Ok -->
<g id="edge29" class="edge">
<title>T&#45;&gt;Ok</title>
<path fill="none" stroke="black" d="M394.73,-457.91C375.06,-439 343.19,-408.36 320.89,-386.91"/>
<polygon fill="black" stroke="black" points="323.07,-384.16 313.44,-379.75 318.22,-389.2 323.07,-384.16"/>
</g>
<!-- Some -->
<g id="node7" class="node">
<title>Some</title>
<path fill="none" stroke="black" d="M560,-379.5C560,-379.5 515,-379.5 515,-379.5 509,-379.5 503,-373.5 503,-367.5 503,-367.5 503,-355.5 503,-355.5 503,-349.5 509,-343.5 515,-343.5 515,-343.5 560,-343.5 560,-343.5 566,-343.5 572,-349.5 572,-355.5 572,-355.5 572,-367.5 572,-367.5 572,-373.5 566,-379.5 560,-379.5"/>
<text text-anchor="middle" x="537.5" y="-358.4" font-family="Hack" font-size="12.00">Some(t)</text>
</g>
<!-- T&#45;&gt;Some -->
<g id="edge31" class="edge">
<title>T&#45;&gt;Some</title>
<path fill="none" stroke="black" d="M431.48,-457.91C452.59,-438.92 486.85,-408.09 510.69,-386.63"/>
<polygon fill="black" stroke="black" points="513.24,-389.04 518.34,-379.75 508.56,-383.84 513.24,-389.04"/>
</g>
<!-- () -->
<g id="node3" class="node">
<title>()</title>
<polygon fill="lightblue" stroke="black" points="674.5,-494 620.5,-494 620.5,-458 674.5,-458 674.5,-494"/>
<text text-anchor="middle" x="647.5" y="-471.6" font-family="Hack" font-size="18.00">()</text>
</g>
<!-- None -->
<g id="node5" class="node">
<title>None</title>
<path fill="none" stroke="black" d="M632.5,-379.5C632.5,-379.5 602.5,-379.5 602.5,-379.5 596.5,-379.5 590.5,-373.5 590.5,-367.5 590.5,-367.5 590.5,-355.5 590.5,-355.5 590.5,-349.5 596.5,-343.5 602.5,-343.5 602.5,-343.5 632.5,-343.5 632.5,-343.5 638.5,-343.5 644.5,-349.5 644.5,-355.5 644.5,-355.5 644.5,-367.5 644.5,-367.5 644.5,-373.5 638.5,-379.5 632.5,-379.5"/>
<text text-anchor="middle" x="617.5" y="-358.4" font-family="Hack" font-size="12.00">None</text>
</g>
<!-- ()&#45;&gt;None -->
<g id="edge33" class="edge">
<title>()&#45;&gt;None</title>
<path fill="none" stroke="black" d="M642.94,-457.91C638.1,-439.74 630.37,-410.75 624.7,-389.48"/>
<polygon fill="black" stroke="black" points="628.06,-388.51 622.1,-379.75 621.29,-390.31 628.06,-388.51"/>
</g>
<!-- or -->
<g id="node11" class="node">
<title>or</title>
<path fill="none" stroke="black" d="M131.5,-259.5C131.5,-259.5 71.5,-259.5 71.5,-259.5 65.5,-259.5 59.5,-253.5 59.5,-247.5 59.5,-247.5 59.5,-235.5 59.5,-235.5 59.5,-229.5 65.5,-223.5 71.5,-223.5 71.5,-223.5 131.5,-223.5 131.5,-223.5 137.5,-223.5 143.5,-229.5 143.5,-235.5 143.5,-235.5 143.5,-247.5 143.5,-247.5 143.5,-253.5 137.5,-259.5 131.5,-259.5"/>
<text text-anchor="middle" x="101.5" y="-238.4" font-family="Hack" font-size="12.00">or[_else]</text>
</g>
<!-- Err&#45;&gt;or -->
<!-- Result&lt;T, E&gt; -->
<g id="node12" class="node">
<title>Result&lt;T, E&gt;</title>
<polygon fill="lightblue" stroke="black" points="367.5,-259.5 179.5,-259.5 179.5,-223.5 367.5,-223.5 367.5,-259.5"/>
<text text-anchor="middle" x="273.5" y="-235.3" font-family="Hack" font-size="24.00">Result&lt;T, E&gt;</text>
</g>
<!-- Err&#45;&gt;Result&lt;T, E&gt; -->
<g id="edge28" class="edge">
<title>Err&#45;&gt;Result&lt;T, E&gt;</title>
<path fill="none" stroke="black" d="M126.51,-343.34C156.45,-322.81 206.69,-288.33 239.97,-265.5"/>
<polygon fill="black" stroke="black" points="242.19,-268.22 248.46,-259.68 238.23,-262.45 242.19,-268.22"/>
</g>
<!-- Option&lt;T&gt; -->
<g id="node13" class="node">
<title>Option&lt;T&gt;</title>
<polygon fill="lightblue" stroke="black" points="621,-259.5 476,-259.5 476,-223.5 621,-223.5 621,-259.5"/>
<text text-anchor="middle" x="548.5" y="-235.3" font-family="Hack" font-size="24.00">Option&lt;T&gt;</text>
</g>
<!-- None&#45;&gt;Option&lt;T&gt; -->
<g id="edge34" class="edge">
<title>None&#45;&gt;Option&lt;T&gt;</title>
<path fill="none" stroke="black" d="M607.47,-343.34C595.97,-323.68 577,-291.24 563.69,-268.48"/>
<polygon fill="black" stroke="black" points="566.61,-266.54 558.55,-259.68 560.57,-270.08 566.61,-266.54"/>
</g>
<!-- Ok&#45;&gt;Result&lt;T, E&gt; -->
<g id="edge30" class="edge">
<title>Ok&#45;&gt;Result&lt;T, E&gt;</title>
<path fill="none" stroke="black" d="M292.3,-343.34C288.7,-324.03 282.8,-292.39 278.57,-269.7"/>
<polygon fill="black" stroke="black" points="281.98,-268.87 276.7,-259.68 275.1,-270.15 281.98,-268.87"/>
</g>
<!-- Some&#45;&gt;Option&lt;T&gt; -->
<g id="edge32" class="edge">
<title>Some&#45;&gt;Option&lt;T&gt;</title>
<path fill="none" stroke="black" d="M539.1,-343.34C540.9,-324.03 543.85,-292.39 545.96,-269.7"/>
<polygon fill="black" stroke="black" points="549.46,-269.96 546.9,-259.68 542.49,-269.31 549.46,-269.96"/>
</g>
<!-- unwrap_expect -->
<g id="node8" class="node">
<title>unwrap_expect</title>
<path fill="none" stroke="black" d="M472.5,-385C472.5,-385 352.5,-385 352.5,-385 346.5,-385 340.5,-379 340.5,-373 340.5,-373 340.5,-350 340.5,-350 340.5,-344 346.5,-338 352.5,-338 352.5,-338 472.5,-338 472.5,-338 478.5,-338 484.5,-344 484.5,-350 484.5,-350 484.5,-373 484.5,-373 484.5,-379 478.5,-385 472.5,-385"/>
<text text-anchor="start" x="356" y="-371.4" font-family="Hack" font-size="12.00" fill="red">unwrap, expect,</text>
<text text-anchor="start" x="348.5" y="-358.4" font-family="Hack" font-size="12.00">unwrap_or[_else],</text>
<text text-anchor="start" x="348.5" y="-345.4" font-family="Hack" font-size="12.00">unwrap_or_default</text>
</g>
<!-- unwrap_expect&#45;&gt;T -->
<g id="edge11" class="edge">
<title>unwrap_expect&#45;&gt;T</title>
<path fill="none" stroke="black" d="M412.5,-385.2C412.5,-403.25 412.5,-428.57 412.5,-447.72"/>
<polygon fill="black" stroke="black" points="409,-447.91 412.5,-457.91 416,-447.91 409,-447.91"/>
</g>
<!-- unwrap_err -->
<g id="node9" class="node">
<title>unwrap_err</title>
<path fill="none" stroke="black" d="M238,-379.5C238,-379.5 163,-379.5 163,-379.5 157,-379.5 151,-373.5 151,-367.5 151,-367.5 151,-355.5 151,-355.5 151,-349.5 157,-343.5 163,-343.5 163,-343.5 238,-343.5 238,-343.5 244,-343.5 250,-349.5 250,-355.5 250,-355.5 250,-367.5 250,-367.5 250,-373.5 244,-379.5 238,-379.5"/>
<text text-anchor="middle" x="200.5" y="-364.9" font-family="Hack" font-size="12.00" fill="red">unwrap_err,</text>
<text text-anchor="middle" x="200.5" y="-351.9" font-family="Hack" font-size="12.00" fill="red">expect_err</text>
</g>
<!-- unwrap_err&#45;&gt;E -->
<g id="edge9" class="edge">
<title>unwrap_err&#45;&gt;E</title>
<path fill="none" stroke="black" d="M192.99,-379.75C185.01,-398.07 172.3,-427.25 163.04,-448.49"/>
<polygon fill="black" stroke="black" points="159.73,-447.35 158.94,-457.91 166.14,-450.14 159.73,-447.35"/>
</g>
<!-- unwrap_none -->
<g id="node10" class="node">
<title>unwrap_none</title>
<path fill="none" stroke="black" d="M758,-379.5C758,-379.5 675,-379.5 675,-379.5 669,-379.5 663,-373.5 663,-367.5 663,-367.5 663,-355.5 663,-355.5 663,-349.5 669,-343.5 675,-343.5 675,-343.5 758,-343.5 758,-343.5 764,-343.5 770,-349.5 770,-355.5 770,-355.5 770,-367.5 770,-367.5 770,-373.5 764,-379.5 758,-379.5"/>
<text text-anchor="middle" x="716.5" y="-364.9" font-family="Hack" font-size="12.00" fill="red">unwrap_none,</text>
<text text-anchor="middle" x="716.5" y="-351.9" font-family="Hack" font-size="12.00" fill="red">expect_none</text>
</g>
<!-- unwrap_none&#45;&gt;() -->
<g id="edge23" class="edge">
<title>unwrap_none&#45;&gt;()</title>
<path fill="none" stroke="black" d="M705.92,-379.75C694.53,-398.31 676.3,-428.05 663.23,-449.35"/>
<polygon fill="black" stroke="black" points="660.22,-447.56 657.98,-457.91 666.19,-451.22 660.22,-447.56"/>
</g>
<!-- or&#45;&gt;Result&lt;T, E&gt; -->
<g id="edge4" class="edge">
<title>or&#45;&gt;Result&lt;T, E&gt;</title>
<path fill="none" stroke="black" d="M143.83,-251.52C152.23,-252.86 160.63,-253.81 169.04,-254.38"/>
<polygon fill="black" stroke="black" points="169.13,-257.89 179.29,-254.88 169.47,-250.89 169.13,-257.89"/>
</g>
<!-- Result&lt;T, E&gt;&#45;&gt;unwrap_expect -->
<g id="edge10" class="edge">
<title>Result&lt;T, E&gt;&#45;&gt;unwrap_expect</title>
<path fill="none" stroke="black" d="M293.9,-259.82C315.92,-278.51 351.39,-308.63 377.82,-331.06"/>
<polygon fill="black" stroke="black" points="375.81,-333.94 385.7,-337.75 380.34,-328.61 375.81,-333.94"/>
</g>
<!-- Result&lt;T, E&gt;&#45;&gt;unwrap_err -->
<g id="edge8" class="edge">
<title>Result&lt;T, E&gt;&#45;&gt;unwrap_err</title>
<path fill="none" stroke="black" d="M262.87,-259.68C250.7,-279.35 230.63,-311.79 216.56,-334.55"/>
<polygon fill="black" stroke="black" points="213.4,-333 211.11,-343.34 219.35,-336.68 213.4,-333"/>
</g>
<!-- Result&lt;T, E&gt;&#45;&gt;or -->
<g id="edge3" class="edge">
<title>Result&lt;T, E&gt;&#45;&gt;or</title>
<path fill="none" stroke="black" d="M179.29,-228.12C170.79,-228.38 162.3,-229.03 153.8,-230.07"/>
<polygon fill="black" stroke="black" points="153.24,-226.62 143.83,-231.48 154.22,-233.55 153.24,-226.62"/>
</g>
<!-- Result&lt;T, E&gt;&#45;&gt;Option&lt;T&gt; -->
<g id="edge5" class="edge">
<title>Result&lt;T, E&gt;&#45;&gt;Option&lt;T&gt;</title>
<path fill="none" stroke="black" d="M367.6,-226.69C388.07,-224.92 409.62,-224.15 429.75,-225.5 441.43,-226.28 453.7,-227.49 465.75,-228.91"/>
<polygon fill="black" stroke="black" points="465.46,-232.4 475.81,-230.14 466.31,-225.45 465.46,-232.4"/>
<text text-anchor="middle" x="421.75" y="-228.9" font-family="Hack" font-size="12.00">ok</text>
</g>
<!-- err -->
<g id="node15" class="node">
<title>err</title>
<path fill="none" stroke="black" d="M237.5,-145C237.5,-145 207.5,-145 207.5,-145 201.5,-145 195.5,-139 195.5,-133 195.5,-133 195.5,-121 195.5,-121 195.5,-115 201.5,-109 207.5,-109 207.5,-109 237.5,-109 237.5,-109 243.5,-109 249.5,-115 249.5,-121 249.5,-121 249.5,-133 249.5,-133 249.5,-139 243.5,-145 237.5,-145"/>
<text text-anchor="middle" x="222.5" y="-123.9" font-family="Hack" font-size="12.00">err</text>
</g>
<!-- Result&lt;T, E&gt;&#45;&gt;err -->
<g id="edge6" class="edge">
<title>Result&lt;T, E&gt;&#45;&gt;err</title>
<path fill="none" stroke="black" d="M265.75,-223.41C257.44,-205.08 244.13,-175.72 234.47,-154.4"/>
<polygon fill="black" stroke="black" points="237.64,-152.91 230.32,-145.25 231.26,-155.8 237.64,-152.91"/>
</g>
<!-- map1 -->
<g id="node16" class="node">
<title>map1</title>
<path fill="none" stroke="black" d="M358.5,-145C358.5,-145 290.5,-145 290.5,-145 284.5,-145 278.5,-139 278.5,-133 278.5,-133 278.5,-121 278.5,-121 278.5,-115 284.5,-109 290.5,-109 290.5,-109 358.5,-109 358.5,-109 364.5,-109 370.5,-115 370.5,-121 370.5,-121 370.5,-133 370.5,-133 370.5,-139 364.5,-145 358.5,-145"/>
<text text-anchor="middle" x="324.5" y="-130.4" font-family="Hack" font-size="12.00">map,</text>
<text text-anchor="middle" x="324.5" y="-117.4" font-family="Hack" font-size="12.00">and[_then]</text>
</g>
<!-- Result&lt;T, E&gt;&#45;&gt;map1 -->
<g id="edge16" class="edge">
<title>Result&lt;T, E&gt;&#45;&gt;map1</title>
<path fill="none" stroke="black" d="M281.25,-223.41C289.56,-205.08 302.87,-175.72 312.53,-154.4"/>
<polygon fill="black" stroke="black" points="315.74,-155.8 316.68,-145.25 309.36,-152.91 315.74,-155.8"/>
</g>
<!-- map_err -->
<g id="node18" class="node">
<title>map_err</title>
<path fill="none" stroke="black" d="M133,-145C133,-145 88,-145 88,-145 82,-145 76,-139 76,-133 76,-133 76,-121 76,-121 76,-115 82,-109 88,-109 88,-109 133,-109 133,-109 139,-109 145,-115 145,-121 145,-121 145,-133 145,-133 145,-139 139,-145 133,-145"/>
<text text-anchor="middle" x="110.5" y="-123.9" font-family="Hack" font-size="12.00">map_err</text>
</g>
<!-- Result&lt;T, E&gt;&#45;&gt;map_err -->
<g id="edge14" class="edge">
<title>Result&lt;T, E&gt;&#45;&gt;map_err</title>
<path fill="none" stroke="black" d="M248.74,-223.41C220.66,-204.03 174.73,-172.33 143.59,-150.84"/>
<polygon fill="black" stroke="black" points="145.44,-147.86 135.22,-145.06 141.46,-153.62 145.44,-147.86"/>
</g>
<!-- map_or -->
<g id="node19" class="node">
<title>map_or</title>
<path fill="none" stroke="black" d="M508.5,-145C508.5,-145 418.5,-145 418.5,-145 412.5,-145 406.5,-139 406.5,-133 406.5,-133 406.5,-121 406.5,-121 406.5,-115 412.5,-109 418.5,-109 418.5,-109 508.5,-109 508.5,-109 514.5,-109 520.5,-115 520.5,-121 520.5,-121 520.5,-133 520.5,-133 520.5,-139 514.5,-145 508.5,-145"/>
<text text-anchor="middle" x="463.5" y="-123.9" font-family="Hack" font-size="12.00">map_or[_else]</text>
</g>
<!-- Result&lt;T, E&gt;&#45;&gt;map_or -->
<g id="edge12" class="edge">
<title>Result&lt;T, E&gt;&#45;&gt;map_or</title>
<path fill="none" stroke="black" d="M302.36,-223.41C335.37,-203.86 389.55,-171.78 425.86,-150.29"/>
<polygon fill="black" stroke="black" points="427.86,-153.17 434.68,-145.06 424.3,-147.15 427.86,-153.17"/>
</g>
<!-- Option&lt;T&gt;&#45;&gt;unwrap_expect -->
<g id="edge21" class="edge">
<title>Option&lt;T&gt;&#45;&gt;unwrap_expect</title>
<path fill="none" stroke="black" d="M528.54,-259.82C506.99,-278.51 472.29,-308.63 446.44,-331.06"/>
<polygon fill="black" stroke="black" points="443.98,-328.55 438.72,-337.75 448.57,-333.84 443.98,-328.55"/>
</g>
<!-- Option&lt;T&gt;&#45;&gt;unwrap_none -->
<g id="edge22" class="edge">
<title>Option&lt;T&gt;&#45;&gt;unwrap_none</title>
<path fill="none" stroke="black" d="M572.96,-259.68C602.21,-280.23 651.29,-314.7 683.78,-337.52"/>
<polygon fill="black" stroke="black" points="681.88,-340.46 692.07,-343.34 685.9,-334.73 681.88,-340.46"/>
</g>
<!-- Option&lt;T&gt;&#45;&gt;Result&lt;T, E&gt; -->
<g id="edge20" class="edge">
<title>Option&lt;T&gt;&#45;&gt;Result&lt;T, E&gt;</title>
<path fill="none" stroke="black" d="M475.64,-241.5C445.68,-241.5 410.4,-241.5 377.78,-241.5"/>
<polygon fill="black" stroke="black" points="377.75,-238 367.75,-241.5 377.75,-245 377.75,-238"/>
<text text-anchor="middle" x="421.75" y="-247.9" font-family="Hack" font-size="12.00">ok_or[_else]</text>
</g>
<!-- filter -->
<g id="node14" class="node">
<title>filter</title>
<path fill="none" stroke="black" d="M752,-265C752,-265 669,-265 669,-265 663,-265 657,-259 657,-253 657,-253 657,-230 657,-230 657,-224 663,-218 669,-218 669,-218 752,-218 752,-218 758,-218 764,-224 764,-230 764,-230 764,-253 764,-253 764,-259 758,-265 752,-265"/>
<text text-anchor="middle" x="710.5" y="-251.4" font-family="Hack" font-size="12.00">filter, xor,</text>
<text text-anchor="middle" x="710.5" y="-238.4" font-family="Hack" font-size="12.00">or[_else],</text>
<text text-anchor="middle" x="710.5" y="-225.4" font-family="Hack" font-size="12.00">replace</text>
</g>
<!-- Option&lt;T&gt;&#45;&gt;filter -->
<g id="edge18" class="edge">
<title>Option&lt;T&gt;&#45;&gt;filter</title>
<path fill="none" stroke="black" d="M621.27,-228.14C629.79,-227.85 638.31,-228.01 646.83,-228.62"/>
<polygon fill="black" stroke="black" points="646.55,-232.11 656.82,-229.54 647.19,-225.14 646.55,-232.11"/>
</g>
<!-- map2 -->
<g id="node17" class="node">
<title>map2</title>
<path fill="none" stroke="black" d="M618.5,-145C618.5,-145 550.5,-145 550.5,-145 544.5,-145 538.5,-139 538.5,-133 538.5,-133 538.5,-121 538.5,-121 538.5,-115 544.5,-109 550.5,-109 550.5,-109 618.5,-109 618.5,-109 624.5,-109 630.5,-115 630.5,-121 630.5,-121 630.5,-133 630.5,-133 630.5,-139 624.5,-145 618.5,-145"/>
<text text-anchor="middle" x="584.5" y="-130.4" font-family="Hack" font-size="12.00">map,</text>
<text text-anchor="middle" x="584.5" y="-117.4" font-family="Hack" font-size="12.00">and[_then]</text>
</g>
<!-- Option&lt;T&gt;&#45;&gt;map2 -->
<g id="edge24" class="edge">
<title>Option&lt;T&gt;&#45;&gt;map2</title>
<path fill="none" stroke="black" d="M553.97,-223.41C559.78,-205.24 569.06,-176.25 575.87,-154.98"/>
<polygon fill="black" stroke="black" points="579.27,-155.84 578.98,-145.25 572.6,-153.7 579.27,-155.84"/>
</g>
<!-- Option&lt;T&gt;&#45;&gt;map_or -->
<g id="edge26" class="edge">
<title>Option&lt;T&gt;&#45;&gt;map_or</title>
<path fill="none" stroke="black" d="M535.59,-223.41C521.49,-204.75 498.75,-174.66 482.59,-153.26"/>
<polygon fill="black" stroke="black" points="485.35,-151.12 476.53,-145.25 479.77,-155.34 485.35,-151.12"/>
</g>
<!-- filter&#45;&gt;Option&lt;T&gt; -->
<g id="edge19" class="edge">
<title>filter&#45;&gt;Option&lt;T&gt;</title>
<path fill="none" stroke="black" d="M656.82,-253.46C648.4,-254.41 639.97,-254.92 631.55,-254.99"/>
<polygon fill="black" stroke="black" points="631.32,-251.49 621.27,-254.86 631.23,-258.49 631.32,-251.49"/>
</g>
<!-- Option&lt;E&gt; -->
<g id="node24" class="node">
<title>Option&lt;E&gt;</title>
<polygon fill="lightblue" stroke="black" points="272,-36 161,-36 161,0 272,0 272,-36"/>
<text text-anchor="middle" x="216.5" y="-13.6" font-family="Hack" font-size="18.00">Option&lt;E&gt;</text>
</g>
<!-- err&#45;&gt;Option&lt;E&gt; -->
<g id="edge7" class="edge">
<title>err&#45;&gt;Option&lt;E&gt;</title>
<path fill="none" stroke="black" d="M221.54,-108.81C220.59,-91.96 219.14,-66.02 218.03,-46.34"/>
<polygon fill="black" stroke="black" points="221.52,-45.94 217.46,-36.15 214.53,-46.33 221.52,-45.94"/>
</g>
<!-- map1&#45;&gt;map_or -->
<!-- Result&lt;U, E&gt; -->
<g id="node22" class="node">
<title>Result&lt;U, E&gt;</title>
<polygon fill="lightblue" stroke="black" points="433,-36 290,-36 290,0 433,0 433,-36"/>
<text text-anchor="middle" x="361.5" y="-13.6" font-family="Hack" font-size="18.00">Result&lt;U, E&gt;</text>
</g>
<!-- map1&#45;&gt;Result&lt;U, E&gt; -->
<g id="edge17" class="edge">
<title>map1&#45;&gt;Result&lt;U, E&gt;</title>
<path fill="none" stroke="black" d="M330.44,-108.81C336.32,-91.81 345.41,-65.54 352.23,-45.79"/>
<polygon fill="black" stroke="black" points="355.61,-46.74 355.57,-36.15 348.99,-44.46 355.61,-46.74"/>
</g>
<!-- Option&lt;U&gt; -->
<g id="node23" class="node">
<title>Option&lt;U&gt;</title>
<polygon fill="lightblue" stroke="black" points="640,-36 529,-36 529,0 640,0 640,-36"/>
<text text-anchor="middle" x="584.5" y="-13.6" font-family="Hack" font-size="18.00">Option&lt;U&gt;</text>
</g>
<!-- map2&#45;&gt;Option&lt;U&gt; -->
<g id="edge25" class="edge">
<title>map2&#45;&gt;Option&lt;U&gt;</title>
<path fill="none" stroke="black" d="M584.5,-108.81C584.5,-91.96 584.5,-66.02 584.5,-46.34"/>
<polygon fill="black" stroke="black" points="588,-46.15 584.5,-36.15 581,-46.15 588,-46.15"/>
</g>
<!-- Result&lt;T, F&gt; -->
<g id="node21" class="node">
<title>Result&lt;T, F&gt;</title>
<polygon fill="lightblue" stroke="black" points="143,-36 0,-36 0,0 143,0 143,-36"/>
<text text-anchor="middle" x="71.5" y="-13.6" font-family="Hack" font-size="18.00">Result&lt;T, F&gt;</text>
</g>
<!-- map_err&#45;&gt;Result&lt;T, F&gt; -->
<g id="edge15" class="edge">
<title>map_err&#45;&gt;Result&lt;T, F&gt;</title>
<path fill="none" stroke="black" d="M104.23,-108.81C98.04,-91.81 88.46,-65.54 81.27,-45.79"/>
<polygon fill="black" stroke="black" points="84.46,-44.35 77.75,-36.15 77.89,-46.74 84.46,-44.35"/>
</g>
<!-- U -->
<g id="node20" class="node">
<title>U</title>
<polygon fill="lightblue" stroke="black" points="505.5,-36 451.5,-36 451.5,0 505.5,0 505.5,-36"/>
<text text-anchor="middle" x="478.5" y="-13.6" font-family="Hack" font-size="18.00">U</text>
</g>
<!-- map_or&#45;&gt;U -->
<g id="edge13" class="edge">
<title>map_or&#45;&gt;U</title>
<path fill="none" stroke="black" d="M465.91,-108.81C468.28,-91.88 471.94,-65.78 474.71,-46.07"/>
<polygon fill="black" stroke="black" points="478.17,-46.54 476.1,-36.15 471.24,-45.57 478.17,-46.54"/>
</g>
</g>
</svg>
